<svg id="visual" viewBox="0 0 900 600" width="900" height="600" xmlns="http://www.w3.org/2000/svg" xmlns:xlink="http://www.w3.org/1999/xlink" version="1.1"><rect x="0" y="0" width="900" height="600" fill="#001220"></rect><defs><linearGradient id="grad1_0" x1="33.3%" y1="0%" x2="100%" y2="100%"><stop offset="20%" stop-color="#001220" stop-opacity="1"></stop><stop offset="80%" stop-color="#001220" stop-opacity="1"></stop></linearGradient></defs><defs><linearGradient id="grad2_0" x1="0%" y1="0%" x2="66.7%" y2="100%"><stop offset="20%" stop-color="#001220" stop-opacity="1"></stop><stop offset="80%" stop-color="#001220" stop-opacity="1"></stop></linearGradient></defs><g transform="translate(900, 0)"><path d="M0 486.7C-55 450.4 -110 414.1 -159.6 385.3C-209.1 356.4 -253.2 334.9 -305.5 305.5C-357.7 276 -418.1 238.5 -449.7 186.3C-481.3 134 -484 67 -486.7 0L0 0Z" fill="#FF0066"></path></g><g transform="translate(0, 600)"><path d="M0 -486.7C63.1 -479.7 126.1 -472.6 186.3 -449.7C246.4 -426.8 303.7 -388.2 338 -338C372.3 -287.8 383.7 -225.9 404.7 -167.6C425.6 -109.3 456.2 -54.7 486.7 0L0 0Z" fill="#FF0066"></path></g></svg>